<svg width="93" height="33" viewBox="0 0 93 33" fill="none" xmlns="http://www.w3.org/2000/svg">
<rect width="93" height="33" rx="5" fill="white"/>
<path d="M23.96 10.976L20.904 16.144L24.264 22H22.504L19.624 16.832H18.12V22H16.6V10.976H18.12V15.584H19.64L22.36 10.976H23.96ZM31.5125 20.032C31.5125 20.3733 31.5712 20.6293 31.6885 20.8C31.8058 20.96 31.9818 21.0827 32.2165 21.168L31.8805 22.192C31.4432 22.1387 31.0912 22.016 30.8245 21.824C30.5578 21.632 30.3605 21.3333 30.2325 20.928C29.6672 21.7707 28.8298 22.192 27.7205 22.192C26.8885 22.192 26.2325 21.9573 25.7525 21.488C25.2725 21.0187 25.0325 20.4053 25.0325 19.648C25.0325 18.752 25.3525 18.064 25.9925 17.584C26.6432 17.104 27.5605 16.864 28.7445 16.864H30.0405V16.24C30.0405 15.6427 29.8965 15.216 29.6085 14.96C29.3205 14.704 28.8778 14.576 28.2805 14.576C27.6618 14.576 26.9045 14.7253 26.0085 15.024L25.6405 13.952C26.6858 13.568 27.6565 13.376 28.5525 13.376C29.5445 13.376 30.2858 13.6213 30.7765 14.112C31.2672 14.592 31.5125 15.28 31.5125 16.176V20.032ZM28.0565 21.088C28.8992 21.088 29.5605 20.6507 30.0405 19.776V17.84H28.9365C27.3792 17.84 26.6005 18.416 26.6005 19.568C26.6005 20.0693 26.7232 20.448 26.9685 20.704C27.2138 20.96 27.5765 21.088 28.0565 21.088ZM38.4076 13.376C39.485 13.376 40.2743 13.76 40.7756 14.528C41.277 15.296 41.5276 16.3787 41.5276 17.776C41.5276 19.0987 41.2396 20.1653 40.6636 20.976C40.0876 21.7867 39.2716 22.192 38.2156 22.192C37.277 22.192 36.541 21.872 36.0076 21.232V25.232L34.5356 25.408V13.568H35.7996L35.9116 14.704C36.221 14.2773 36.5943 13.952 37.0316 13.728C37.469 13.4933 37.9276 13.376 38.4076 13.376ZM37.8636 20.992C39.2503 20.992 39.9436 19.92 39.9436 17.776C39.9436 15.6213 39.309 14.544 38.0396 14.544C37.6236 14.544 37.245 14.6667 36.9036 14.912C36.5623 15.1573 36.2636 15.472 36.0076 15.856V19.968C36.221 20.2987 36.4876 20.5547 36.8076 20.736C37.1276 20.9067 37.4796 20.992 37.8636 20.992ZM50.6474 20.816V24.4H49.4474L49.2074 22H43.7994L43.5594 24.4H42.3594V20.816H42.9514C43.2074 20.6453 43.41 20.4533 43.5594 20.24C43.7087 20.016 43.842 19.632 43.9594 19.088C44.0874 18.544 44.1887 17.7493 44.2634 16.704L44.4874 13.568H49.7674V20.816H50.6474ZM48.2954 14.736H45.8154L45.6874 16.512C45.6127 17.504 45.5274 18.2667 45.4314 18.8C45.3354 19.3333 45.1967 19.744 45.0154 20.032C44.8447 20.32 44.594 20.5813 44.2634 20.816H48.2954V14.736Z" fill="#1F1C14"/>
<path fill-rule="evenodd" clip-rule="evenodd" d="M66.0007 11.1665C64.5279 11.1665 63.334 12.3604 63.334 13.8332V19.1665C63.334 20.6393 64.5279 21.8332 66.0007 21.8332H74.0007C75.4734 21.8332 76.6673 20.6393 76.6673 19.1665V13.8332C76.6673 12.3604 75.4734 11.1665 74.0007 11.1665L66.0007 11.1665ZM71.334 12.4998L68.6673 12.4998V20.4998H71.334V12.4998ZM72.6673 12.4998V20.4998H74.0007C74.737 20.4998 75.334 19.9029 75.334 19.1665V13.8332C75.334 13.0968 74.737 12.4998 74.0007 12.4998H72.6673ZM66.0007 20.4998H67.334V12.4998H66.0007C65.2643 12.4998 64.6673 13.0968 64.6673 13.8332V19.1665C64.6673 19.9029 65.2643 20.4998 66.0007 20.4998Z" fill="#1F1C14"/>
</svg>
