<svg width="39" height="16" viewBox="0 0 39 16" fill="none" xmlns="http://www.w3.org/2000/svg">
<path d="M14.6124 7.73317C13.2657 4.6065 10.7324 2.6665 7.99907 2.6665C5.26573 2.6665 2.7324 4.6065 1.38573 7.73317C1.34903 7.81728 1.33008 7.90806 1.33008 7.99984C1.33008 8.09161 1.34903 8.18239 1.38573 8.2665C2.7324 11.3932 5.26573 13.3332 7.99907 13.3332C10.7324 13.3332 13.2657 11.3932 14.6124 8.2665C14.6491 8.18239 14.6681 8.09161 14.6681 7.99984C14.6681 7.90806 14.6491 7.81728 14.6124 7.73317ZM7.99907 11.9998C5.88573 11.9998 3.88573 10.4732 2.7324 7.99984C3.88573 5.5265 5.88573 3.99984 7.99907 3.99984C10.1124 3.99984 12.1124 5.5265 13.2657 7.99984C12.1124 10.4732 10.1124 11.9998 7.99907 11.9998ZM7.99907 5.33317C7.47165 5.33317 6.95608 5.48957 6.51755 5.78258C6.07902 6.0756 5.73722 6.49208 5.53539 6.97935C5.33356 7.46662 5.28075 8.0028 5.38364 8.52008C5.48653 9.03736 5.74051 9.51252 6.11345 9.88546C6.48639 10.2584 6.96154 10.5124 7.47883 10.6153C7.99611 10.7182 8.53229 10.6653 9.01956 10.4635C9.50683 10.2617 9.9233 9.91989 10.2163 9.48136C10.5093 9.04283 10.6657 8.52725 10.6657 7.99984C10.6657 7.29259 10.3848 6.61432 9.88469 6.11422C9.38459 5.61412 8.70631 5.33317 7.99907 5.33317ZM7.99907 9.33317C7.73536 9.33317 7.47757 9.25497 7.25831 9.10846C7.03904 8.96195 6.86815 8.75372 6.76723 8.51008C6.66631 8.26645 6.63991 7.99836 6.69135 7.73972C6.7428 7.48108 6.86979 7.2435 7.05626 7.05703C7.24273 6.87056 7.48031 6.74357 7.73895 6.69212C7.99759 6.64068 8.26568 6.66708 8.50931 6.768C8.75295 6.86891 8.96119 7.03981 9.10769 7.25908C9.2542 7.47834 9.3324 7.73613 9.3324 7.99984C9.3324 8.35346 9.19193 8.6926 8.94188 8.94265C8.69183 9.19269 8.35269 9.33317 7.99907 9.33317Z" fill="#333333"/>
<path d="M22.736 3.852C23.216 3.852 23.636 3.948 23.996 4.14C24.364 4.332 24.648 4.596 24.848 4.932C25.048 5.26 25.148 5.632 25.148 6.048C25.148 6.536 25.036 7.004 24.812 7.452C24.596 7.9 24.26 8.384 23.804 8.904C23.348 9.424 22.656 10.148 21.728 11.076H25.34L25.208 12H20.468V11.124C21.54 10.012 22.3 9.2 22.748 8.688C23.196 8.168 23.516 7.716 23.708 7.332C23.9 6.948 23.996 6.536 23.996 6.096C23.996 5.68 23.876 5.356 23.636 5.124C23.396 4.884 23.076 4.764 22.676 4.764C22.348 4.764 22.06 4.832 21.812 4.968C21.564 5.104 21.3 5.328 21.02 5.64L20.3 5.064C20.628 4.656 20.992 4.352 21.392 4.152C21.792 3.952 22.24 3.852 22.736 3.852ZM30.9814 4.836H27.8494V7.2C28.2574 6.992 28.6854 6.888 29.1334 6.888C29.8214 6.888 30.3734 7.116 30.7894 7.572C31.2054 8.02 31.4134 8.64 31.4134 9.432C31.4134 9.96 31.2974 10.432 31.0654 10.848C30.8334 11.256 30.5054 11.576 30.0814 11.808C29.6654 12.032 29.1814 12.144 28.6294 12.144C28.1414 12.144 27.7054 12.06 27.3214 11.892C26.9374 11.716 26.5814 11.46 26.2534 11.124L26.9014 10.488C27.1574 10.744 27.4214 10.936 27.6934 11.064C27.9654 11.184 28.2734 11.244 28.6174 11.244C29.1294 11.244 29.5294 11.084 29.8174 10.764C30.1134 10.444 30.2614 9.992 30.2614 9.408C30.2614 8.824 30.1294 8.4 29.8654 8.136C29.6014 7.872 29.2454 7.74 28.7974 7.74C28.5894 7.74 28.3974 7.764 28.2214 7.812C28.0454 7.852 27.8574 7.92 27.6574 8.016H26.7934V3.972H31.1374L30.9814 4.836ZM35.3011 3.852C36.1891 3.852 36.8571 4.208 37.3051 4.92C37.7611 5.624 37.9891 6.648 37.9891 7.992C37.9891 9.336 37.7611 10.364 37.3051 11.076C36.8571 11.788 36.1891 12.144 35.3011 12.144C34.4131 12.144 33.7411 11.788 33.2851 11.076C32.8371 10.364 32.6131 9.336 32.6131 7.992C32.6131 6.648 32.8371 5.624 33.2851 4.92C33.7411 4.208 34.4131 3.852 35.3011 3.852ZM35.3011 4.728C34.7811 4.728 34.3931 4.984 34.1371 5.496C33.8891 6.008 33.7651 6.84 33.7651 7.992C33.7651 9.144 33.8891 9.98 34.1371 10.5C34.3931 11.012 34.7811 11.268 35.3011 11.268C35.8131 11.268 36.1971 11.012 36.4531 10.5C36.7091 9.98 36.8371 9.144 36.8371 7.992C36.8371 6.848 36.7091 6.02 36.4531 5.508C36.1971 4.988 35.8131 4.728 35.3011 4.728Z" fill="#333333"/>
</svg>
