<svg width="16" height="17" viewBox="0 0 16 17" fill="none" xmlns="http://www.w3.org/2000/svg">
<path d="M13.3334 5.83334L9.3334 2.32667C8.96671 1.9987 8.49202 1.81738 8.00006 1.81738C7.50811 1.81738 7.03341 1.9987 6.66673 2.32667L2.66673 5.83334C2.45498 6.02272 2.286 6.25504 2.17104 6.51483C2.05609 6.77463 1.9978 7.05592 2.00006 7.34V13.1667C2.00006 13.6971 2.21078 14.2058 2.58585 14.5809C2.96092 14.956 3.46963 15.1667 4.00006 15.1667H12.0001C12.5305 15.1667 13.0392 14.956 13.4143 14.5809C13.7893 14.2058 14.0001 13.6971 14.0001 13.1667V7.33334C14.0014 7.05038 13.9426 6.77036 13.8277 6.51179C13.7128 6.25322 13.5443 6.02197 13.3334 5.83334ZM9.3334 13.8333H6.66673V10.5C6.66673 10.3232 6.73697 10.1536 6.86199 10.0286C6.98702 9.90357 7.15658 9.83334 7.3334 9.83334H8.66673C8.84354 9.83334 9.01311 9.90357 9.13813 10.0286C9.26316 10.1536 9.3334 10.3232 9.3334 10.5V13.8333ZM12.6667 13.1667C12.6667 13.3435 12.5965 13.5131 12.4715 13.6381C12.3464 13.7631 12.1769 13.8333 12.0001 13.8333H10.6667V10.5C10.6667 9.96957 10.456 9.46086 10.0809 9.08579C9.70587 8.71072 9.19716 8.5 8.66673 8.5H7.3334C6.80296 8.5 6.29426 8.71072 5.91918 9.08579C5.54411 9.46086 5.3334 9.96957 5.3334 10.5V13.8333H4.00006C3.82325 13.8333 3.65368 13.7631 3.52866 13.6381C3.40363 13.5131 3.3334 13.3435 3.3334 13.1667V7.33334C3.33352 7.23868 3.35379 7.14513 3.39287 7.05892C3.43196 6.97271 3.48895 6.89581 3.56006 6.83334L7.56006 3.33334C7.68172 3.22646 7.83812 3.16751 8.00006 3.16751C8.162 3.16751 8.3184 3.22646 8.44006 3.33334L12.4401 6.83334C12.5112 6.89581 12.5682 6.97271 12.6073 7.05892C12.6463 7.14513 12.6666 7.23868 12.6667 7.33334V13.1667Z" fill="black"/>
</svg>
