<svg width="130" height="72" viewBox="0 0 130 72" fill="none" xmlns="http://www.w3.org/2000/svg">
<rect width="130" height="72" rx="8" fill="#E4E4E4"/>
<path d="M27.9506 30.944V42H25.8226V37.744C25.396 38.0533 24.9853 38.2827 24.5906 38.432C24.196 38.5707 23.7373 38.64 23.2146 38.64C22.18 38.64 21.364 38.32 20.7666 37.68C20.1693 37.04 19.8706 36.1707 19.8706 35.072V30.944H21.9666V34.992C21.9666 35.6747 22.116 36.1813 22.4146 36.512C22.724 36.832 23.1826 36.992 23.7906 36.992C24.6226 36.992 25.3 36.7413 25.8226 36.24V30.944H27.9506ZM37.426 37.568C37.426 37.6747 37.41 37.952 37.378 38.4H32.066C32.13 39.2213 32.3433 39.808 32.706 40.16C33.0687 40.512 33.5487 40.688 34.146 40.688C34.5193 40.688 34.8713 40.6293 35.202 40.512C35.5327 40.384 35.8847 40.192 36.258 39.936L37.106 41.104C36.1673 41.8613 35.122 42.24 33.97 42.24C32.6793 42.24 31.682 41.8453 30.978 41.056C30.2847 40.2667 29.938 39.1893 29.938 37.824C29.938 36.96 30.0873 36.1867 30.386 35.504C30.6847 34.8107 31.1167 34.272 31.682 33.888C32.2473 33.4933 32.9193 33.296 33.698 33.296C34.882 33.296 35.7993 33.6747 36.45 34.432C37.1007 35.1787 37.426 36.224 37.426 37.568ZM35.394 36.976C35.394 35.4933 34.8447 34.752 33.746 34.752C33.2447 34.752 32.85 34.9387 32.562 35.312C32.2847 35.6747 32.1193 36.2613 32.066 37.072H35.394V36.976ZM43.6473 33.296C44.7139 33.296 45.5033 33.6853 46.0153 34.464C46.5273 35.2427 46.7833 36.336 46.7833 37.744C46.7833 38.6187 46.6499 39.3973 46.3833 40.08C46.1273 40.752 45.7433 41.28 45.2313 41.664C44.7299 42.048 44.1326 42.24 43.4393 42.24C42.5433 42.24 41.8339 41.9307 41.3113 41.312V45.264L39.2633 45.488V33.536H41.0553L41.1673 34.576C41.4979 34.1493 41.8766 33.8293 42.3033 33.616C42.7299 33.4027 43.1779 33.296 43.6473 33.296ZM42.8633 40.672C44.0473 40.672 44.6393 39.7013 44.6393 37.76C44.6393 36.7253 44.5059 35.9787 44.2393 35.52C43.9726 35.0613 43.5726 34.832 43.0393 34.832C42.6979 34.832 42.3779 34.9387 42.0793 35.152C41.7806 35.3547 41.5246 35.632 41.3113 35.984V39.792C41.7059 40.3787 42.2233 40.672 42.8633 40.672ZM55.7385 37.568C55.7385 37.6747 55.7225 37.952 55.6905 38.4H50.3785C50.4425 39.2213 50.6558 39.808 51.0185 40.16C51.3812 40.512 51.8612 40.688 52.4585 40.688C52.8318 40.688 53.1838 40.6293 53.5145 40.512C53.8452 40.384 54.1972 40.192 54.5705 39.936L55.4185 41.104C54.4798 41.8613 53.4345 42.24 52.2825 42.24C50.9918 42.24 49.9945 41.8453 49.2905 41.056C48.5972 40.2667 48.2505 39.1893 48.2505 37.824C48.2505 36.96 48.3998 36.1867 48.6985 35.504C48.9972 34.8107 49.4292 34.272 49.9945 33.888C50.5598 33.4933 51.2318 33.296 52.0105 33.296C53.1945 33.296 54.1118 33.6747 54.7625 34.432C55.4132 35.1787 55.7385 36.224 55.7385 37.568ZM53.7065 36.976C53.7065 35.4933 53.1572 34.752 52.0585 34.752C51.5572 34.752 51.1625 34.9387 50.8745 35.312C50.5972 35.6747 50.4318 36.2613 50.3785 37.072H53.7065V36.976ZM59.5855 33.296C60.4922 33.296 61.2495 33.504 61.8575 33.92C62.4762 34.336 62.7855 34.9013 62.7855 35.616C62.7855 36.096 62.6362 36.4907 62.3375 36.8C62.0495 37.0987 61.6015 37.3227 60.9935 37.472C61.7402 37.5893 62.2948 37.8133 62.6575 38.144C63.0308 38.464 63.2175 38.928 63.2175 39.536C63.2175 40.4107 62.8655 41.0827 62.1615 41.552C61.4682 42.0107 60.5615 42.24 59.4415 42.24C58.1295 42.24 57.0042 41.8933 56.0655 41.2L57.0735 40.016C57.4468 40.2613 57.8095 40.4427 58.1615 40.56C58.5135 40.6667 58.9135 40.72 59.3615 40.72C60.5028 40.72 61.0735 40.2987 61.0735 39.456C61.0735 38.6987 60.4708 38.32 59.2655 38.32H58.0335L58.1615 36.912H59.0895C59.5908 36.912 59.9855 36.8213 60.2735 36.64C60.5615 36.448 60.7055 36.16 60.7055 35.776C60.7055 35.424 60.5775 35.168 60.3215 35.008C60.0762 34.848 59.7455 34.768 59.3295 34.768C58.9242 34.768 58.5668 34.8213 58.2575 34.928C57.9482 35.0347 57.6335 35.1947 57.3135 35.408L56.3695 34.272C56.8175 33.9413 57.3028 33.696 57.8255 33.536C58.3482 33.376 58.9348 33.296 59.5855 33.296ZM76.1779 33.536L73.7939 37.456L76.4339 42H74.1779L72.1139 38.24H71.2019V42H69.1539V33.536H71.2019V36.88H72.1619L74.1299 33.536H76.1779ZM83.738 39.76C83.738 40.0907 83.786 40.336 83.882 40.496C83.9887 40.6453 84.154 40.7627 84.378 40.848L83.946 42.208C83.466 42.1653 83.0713 42.048 82.762 41.856C82.4633 41.664 82.234 41.3707 82.074 40.976C81.786 41.4027 81.4233 41.7227 80.986 41.936C80.5593 42.1387 80.0793 42.24 79.546 42.24C78.7033 42.24 78.0367 42 77.546 41.52C77.0553 41.04 76.81 40.4107 76.81 39.632C76.81 38.7147 77.1407 38.016 77.802 37.536C78.474 37.0453 79.4287 36.8 80.666 36.8H81.722V36.32C81.722 35.776 81.594 35.3973 81.338 35.184C81.0927 34.96 80.6927 34.848 80.138 34.848C79.5193 34.848 78.7727 34.9973 77.898 35.296L77.418 33.904C78.474 33.4987 79.498 33.296 80.49 33.296C82.6553 33.296 83.738 34.2667 83.738 36.208V39.76ZM80.09 40.752C80.7833 40.752 81.3273 40.4053 81.722 39.712V38H80.874C79.5513 38 78.89 38.4907 78.89 39.472C78.89 39.8773 78.9913 40.192 79.194 40.416C79.3967 40.64 79.6953 40.752 80.09 40.752ZM90.6004 33.296C91.667 33.296 92.4564 33.6853 92.9684 34.464C93.4804 35.2427 93.7364 36.336 93.7364 37.744C93.7364 38.6187 93.603 39.3973 93.3364 40.08C93.0804 40.752 92.6964 41.28 92.1844 41.664C91.683 42.048 91.0857 42.24 90.3924 42.24C89.4964 42.24 88.787 41.9307 88.2644 41.312V45.264L86.2164 45.488V33.536H88.0084L88.1204 34.576C88.451 34.1493 88.8297 33.8293 89.2564 33.616C89.683 33.4027 90.131 33.296 90.6004 33.296ZM89.8164 40.672C91.0004 40.672 91.5924 39.7013 91.5924 37.76C91.5924 36.7253 91.459 35.9787 91.1924 35.52C90.9257 35.0613 90.5257 34.832 89.9924 34.832C89.651 34.832 89.331 34.9387 89.0324 35.152C88.7337 35.3547 88.4777 35.632 88.2644 35.984V39.792C88.659 40.3787 89.1764 40.672 89.8164 40.672ZM101.565 33.536L101.309 35.104H98.8294V42H96.7814V35.104H94.1574V33.536H101.565ZM106.844 42.032C106.502 43.0773 105.985 43.888 105.292 44.464C104.598 45.0507 103.649 45.392 102.444 45.488L102.236 44C102.79 43.9147 103.233 43.792 103.564 43.632C103.905 43.4827 104.177 43.28 104.38 43.024C104.582 42.768 104.769 42.4267 104.94 42H104.236L101.548 33.536H103.724L105.564 40.64L107.484 33.536H109.596L106.844 42.032Z" fill="#1F1D14"/>
</svg>
