<svg width="93" height="33" viewBox="0 0 93 33" fill="none" xmlns="http://www.w3.org/2000/svg">
<rect width="93" height="33" rx="5" fill="white" fill-opacity="0.3"/>
<path opacity="0.4" d="M23.944 10.976V22H22.424V12.256H18.968L18.44 17.008C18.2907 18.3307 18.1147 19.3227 17.912 19.984C17.7093 20.6347 17.4373 21.1147 17.096 21.424C16.7547 21.7227 16.2533 21.9787 15.592 22.192L15.224 21.008C15.6293 20.8587 15.928 20.6667 16.12 20.432C16.3227 20.1973 16.4773 19.8453 16.584 19.376C16.6907 18.9067 16.8027 18.1547 16.92 17.12L17.64 10.976H23.944ZM33.6269 22H32.1709V18.192C32.1709 17.552 32.1922 16.944 32.2349 16.368C32.2775 15.792 32.3149 15.4133 32.3469 15.232L28.8109 22H27.0669V13.568H28.5229V17.376C28.5229 17.9413 28.5015 18.528 28.4589 19.136C28.4162 19.7333 28.3842 20.1173 28.3629 20.288L31.8509 13.568H33.6269V22ZM39.7326 13.376C40.234 13.376 40.6926 13.4507 41.1086 13.6C41.5246 13.7387 41.9246 13.968 42.3086 14.288L41.6046 15.216C41.306 15.0027 41.0126 14.848 40.7246 14.752C40.4473 14.6453 40.138 14.592 39.7966 14.592C39.114 14.592 38.5806 14.864 38.1966 15.408C37.8233 15.952 37.6366 16.7573 37.6366 17.824C37.6366 18.8907 37.8233 19.68 38.1966 20.192C38.57 20.6933 39.1033 20.944 39.7966 20.944C40.1273 20.944 40.4313 20.896 40.7086 20.8C40.986 20.6933 41.2953 20.528 41.6366 20.304L42.3086 21.264C41.5406 21.8827 40.682 22.192 39.7326 22.192C38.5913 22.192 37.69 21.808 37.0286 21.04C36.378 20.272 36.0526 19.2107 36.0526 17.856C36.0526 16.96 36.202 16.176 36.5006 15.504C36.7993 14.832 37.2206 14.3093 37.7646 13.936C38.3193 13.5627 38.9753 13.376 39.7326 13.376ZM49.9973 13.568L49.8213 14.768H47.1173V22H45.6453V14.768H42.8613V13.568H49.9973Z" fill="black"/>
<g opacity="0.4">
<path d="M67.334 20.5H76.0007" stroke="black" stroke-width="2" stroke-linecap="round" stroke-linejoin="round"/>
<path d="M64 20.5H64.0067" stroke="black" stroke-width="2" stroke-linecap="round" stroke-linejoin="round"/>
<path d="M67.334 16.5H76.0007" stroke="black" stroke-width="2" stroke-linecap="round" stroke-linejoin="round"/>
<path d="M64 16.5H64.0067" stroke="black" stroke-width="2" stroke-linecap="round" stroke-linejoin="round"/>
<path d="M67.334 12.5L76.0007 12.5" stroke="black" stroke-width="2" stroke-linecap="round" stroke-linejoin="round"/>
<path d="M64 12.5H64.0067" stroke="black" stroke-width="2" stroke-linecap="round" stroke-linejoin="round"/>
</g>
</svg>
