<svg width="92" height="14" viewBox="0 0 92 14" fill="none" xmlns="http://www.w3.org/2000/svg">
<g clip-path="url(#clip0_2_813)">
<path d="M3.372 2.732C4.396 2.732 5.188 2.948 5.748 3.38C6.308 3.804 6.588 4.44 6.588 5.288C6.588 6.192 6.296 6.864 5.712 7.304C5.128 7.744 4.352 7.964 3.384 7.964H2.34V11H1.2V2.732H3.372ZM3.336 7.064C4 7.064 4.504 6.936 4.848 6.68C5.2 6.424 5.376 5.964 5.376 5.3C5.376 4.708 5.2 4.28 4.848 4.016C4.504 3.752 4.008 3.62 3.36 3.62H2.34V7.064H3.336ZM11.7164 9.524C11.7164 9.78 11.7604 9.972 11.8484 10.1C11.9364 10.22 12.0684 10.312 12.2444 10.376L11.9924 11.144C11.6644 11.104 11.4004 11.012 11.2004 10.868C11.0004 10.724 10.8524 10.5 10.7564 10.196C10.3324 10.828 9.70441 11.144 8.87241 11.144C8.24841 11.144 7.75641 10.968 7.39641 10.616C7.03641 10.264 6.85641 9.804 6.85641 9.236C6.85641 8.564 7.09641 8.048 7.57641 7.688C8.06441 7.328 8.75241 7.148 9.64041 7.148H10.6124V6.68C10.6124 6.232 10.5044 5.912 10.2884 5.72C10.0724 5.528 9.74041 5.432 9.29241 5.432C8.82841 5.432 8.26041 5.544 7.58841 5.768L7.31241 4.964C8.09641 4.676 8.82441 4.532 9.49641 4.532C10.2404 4.532 10.7964 4.716 11.1644 5.084C11.5324 5.444 11.7164 5.96 11.7164 6.632V9.524ZM9.12441 10.316C9.75641 10.316 10.2524 9.988 10.6124 9.332V7.88H9.78441C8.61641 7.88 8.03241 8.312 8.03241 9.176C8.03241 9.552 8.12441 9.836 8.30841 10.028C8.49241 10.22 8.76441 10.316 9.12441 10.316ZM16.2878 4.532C16.6638 4.532 17.0078 4.588 17.3198 4.7C17.6318 4.804 17.9318 4.976 18.2198 5.216L17.6918 5.912C17.4678 5.752 17.2478 5.636 17.0318 5.564C16.8238 5.484 16.5918 5.444 16.3358 5.444C15.8238 5.444 15.4238 5.648 15.1358 6.056C14.8558 6.464 14.7158 7.068 14.7158 7.868C14.7158 8.668 14.8558 9.26 15.1358 9.644C15.4158 10.02 15.8158 10.208 16.3358 10.208C16.5838 10.208 16.8118 10.172 17.0198 10.1C17.2278 10.02 17.4598 9.896 17.7158 9.728L18.2198 10.448C17.6438 10.912 16.9998 11.144 16.2878 11.144C15.4318 11.144 14.7558 10.856 14.2598 10.28C13.7718 9.704 13.5278 8.908 13.5278 7.892C13.5278 7.22 13.6398 6.632 13.8638 6.128C14.0878 5.624 14.4038 5.232 14.8118 4.952C15.2278 4.672 15.7198 4.532 16.2878 4.532ZM23.4102 11V5.576H20.8182V11H19.7142V4.676H24.5142V11H23.4102ZM31.5683 7.652C31.5683 7.836 31.5603 8.024 31.5443 8.216H27.5123C27.5603 8.912 27.7363 9.424 28.0403 9.752C28.3443 10.08 28.7363 10.244 29.2163 10.244C29.5203 10.244 29.8003 10.2 30.0563 10.112C30.3123 10.024 30.5803 9.884 30.8603 9.692L31.3403 10.352C30.6683 10.88 29.9323 11.144 29.1323 11.144C28.2523 11.144 27.5643 10.856 27.0683 10.28C26.5803 9.704 26.3363 8.912 26.3363 7.904C26.3363 7.248 26.4403 6.668 26.6483 6.164C26.8643 5.652 27.1683 5.252 27.5603 4.964C27.9603 4.676 28.4283 4.532 28.9643 4.532C29.8043 4.532 30.4483 4.808 30.8963 5.36C31.3443 5.912 31.5683 6.676 31.5683 7.652ZM30.4763 7.328C30.4763 6.704 30.3523 6.228 30.1043 5.9C29.8563 5.572 29.4843 5.408 28.9883 5.408C28.0843 5.408 27.5923 6.072 27.5123 7.4H30.4763V7.328ZM37.6754 4.676V11H36.5714V8.36C36.3394 8.576 36.0514 8.748 35.7074 8.876C35.3714 8.996 35.0234 9.056 34.6634 9.056C34.0634 9.056 33.6114 8.896 33.3074 8.576C33.0034 8.248 32.8514 7.784 32.8514 7.184V4.676H33.9554V7.052C33.9554 7.452 34.0354 7.744 34.1954 7.928C34.3634 8.104 34.6194 8.192 34.9634 8.192C35.2434 8.192 35.5354 8.128 35.8394 8C36.1514 7.872 36.3954 7.708 36.5714 7.508V4.676H37.6754ZM44.2125 9.524C44.2125 9.78 44.2565 9.972 44.3445 10.1C44.4325 10.22 44.5645 10.312 44.7405 10.376L44.4885 11.144C44.1605 11.104 43.8965 11.012 43.6965 10.868C43.4965 10.724 43.3485 10.5 43.2525 10.196C42.8285 10.828 42.2005 11.144 41.3685 11.144C40.7445 11.144 40.2525 10.968 39.8925 10.616C39.5325 10.264 39.3525 9.804 39.3525 9.236C39.3525 8.564 39.5925 8.048 40.0725 7.688C40.5605 7.328 41.2485 7.148 42.1365 7.148H43.1085V6.68C43.1085 6.232 43.0005 5.912 42.7845 5.72C42.5685 5.528 42.2365 5.432 41.7885 5.432C41.3245 5.432 40.7565 5.544 40.0845 5.768L39.8085 4.964C40.5925 4.676 41.3205 4.532 41.9925 4.532C42.7365 4.532 43.2925 4.716 43.6605 5.084C44.0285 5.444 44.2125 5.96 44.2125 6.632V9.524ZM41.6205 10.316C42.2525 10.316 42.7485 9.988 43.1085 9.332V7.88H42.2805C41.1125 7.88 40.5285 8.312 40.5285 9.176C40.5285 9.552 40.6205 9.836 40.8045 10.028C40.9885 10.22 41.2605 10.316 41.6205 10.316ZM50.5175 4.676L50.3855 5.576H48.3575V11H47.2535V5.576H45.1655V4.676H50.5175ZM55.4391 9.524C55.4391 9.78 55.4831 9.972 55.5711 10.1C55.6591 10.22 55.7911 10.312 55.9671 10.376L55.7151 11.144C55.3871 11.104 55.1231 11.012 54.9231 10.868C54.7231 10.724 54.5751 10.5 54.4791 10.196C54.0551 10.828 53.4271 11.144 52.5951 11.144C51.9711 11.144 51.4791 10.968 51.1191 10.616C50.7591 10.264 50.5791 9.804 50.5791 9.236C50.5791 8.564 50.8191 8.048 51.2991 7.688C51.7871 7.328 52.4751 7.148 53.3631 7.148H54.3351V6.68C54.3351 6.232 54.2271 5.912 54.0111 5.72C53.7951 5.528 53.4631 5.432 53.0151 5.432C52.5511 5.432 51.9831 5.544 51.3111 5.768L51.0351 4.964C51.8191 4.676 52.5471 4.532 53.2191 4.532C53.9631 4.532 54.5191 4.716 54.8871 5.084C55.2551 5.444 55.4391 5.96 55.4391 6.632V9.524ZM52.8471 10.316C53.4791 10.316 53.9751 9.988 54.3351 9.332V7.88H53.5071C52.3391 7.88 51.7551 8.312 51.7551 9.176C51.7551 9.552 51.8471 9.836 52.0311 10.028C52.2151 10.22 52.4871 10.316 52.8471 10.316ZM61.744 4.676L61.612 5.576H59.584V11H58.48V5.576H56.392V4.676H61.744ZM64.8301 6.716C65.7741 6.716 66.4581 6.9 66.8821 7.268C67.3061 7.636 67.5181 8.16 67.5181 8.84C67.5181 9.552 67.2781 10.092 66.7981 10.46C66.3261 10.82 65.7381 11 65.0341 11H62.8861V4.676H63.9901V6.716H64.8301ZM64.9381 10.136C65.3861 10.136 65.7301 10.036 65.9701 9.836C66.2181 9.636 66.3421 9.304 66.3421 8.84C66.3421 8.4 66.2261 8.076 65.9941 7.868C65.7701 7.66 65.3781 7.556 64.8181 7.556H63.9901V10.136H64.9381ZM69.3616 9.476C69.6016 9.476 69.8016 9.556 69.9616 9.716C70.1216 9.876 70.2016 10.072 70.2016 10.304C70.2016 10.536 70.1216 10.736 69.9616 10.904C69.8016 11.064 69.6016 11.144 69.3616 11.144C69.1296 11.144 68.9336 11.064 68.7736 10.904C68.6136 10.736 68.5336 10.536 68.5336 10.304C68.5336 10.072 68.6136 9.876 68.7736 9.716C68.9336 9.556 69.1296 9.476 69.3616 9.476ZM69.3616 5.06C69.6016 5.06 69.8016 5.14 69.9616 5.3C70.1216 5.46 70.2016 5.656 70.2016 5.888C70.2016 6.12 70.1216 6.32 69.9616 6.488C69.8016 6.648 69.6016 6.728 69.3616 6.728C69.1296 6.728 68.9336 6.648 68.7736 6.488C68.6136 6.32 68.5336 6.12 68.5336 5.888C68.5336 5.656 68.6136 5.46 68.7736 5.3C68.9336 5.14 69.1296 5.06 69.3616 5.06Z" fill="#1F1D14"/>
<g clip-path="url(#clip1_2_813)">
<path d="M81.5003 10.5H80.3337C80.0242 10.5 79.7275 10.3771 79.5087 10.1583C79.2899 9.9395 79.167 9.64275 79.167 9.33333V6.41667C79.167 6.10725 79.2899 5.8105 79.5087 5.59171C79.7275 5.37292 80.0242 5.25 80.3337 5.25H89.667C89.9764 5.25 90.2732 5.37292 90.4919 5.59171C90.7107 5.8105 90.8337 6.10725 90.8337 6.41667V9.33333C90.8337 9.64275 90.7107 9.9395 90.4919 10.1583C90.2732 10.3771 89.9764 10.5 89.667 10.5H88.5003" stroke="black" stroke-linecap="round" stroke-linejoin="round"/>
<path d="M88.5 8.1665H81.5V12.8332H88.5V8.1665Z" stroke="black" stroke-linecap="round" stroke-linejoin="round"/>
<path d="M81.5 5.24984V1.1665H88.5V5.24984" stroke="black" stroke-linecap="round" stroke-linejoin="round"/>
</g>
</g>
<defs>
<clipPath id="clip0_2_813">
<rect width="92" height="14" fill="white"/>
</clipPath>
<clipPath id="clip1_2_813">
<rect width="14" height="14" fill="white" transform="translate(78)"/>
</clipPath>
</defs>
</svg>
