<svg width="94" height="14" viewBox="0 0 94 14" fill="none" xmlns="http://www.w3.org/2000/svg">
<g clip-path="url(#clip0_2_810)">
<path d="M6.9 2.732V11H5.76V3.704H2.34V11H1.2V2.732H6.9ZM11.6137 4.532C12.5017 4.532 13.1897 4.828 13.6777 5.42C14.1737 6.012 14.4217 6.816 14.4217 7.832C14.4217 8.488 14.3097 9.068 14.0857 9.572C13.8617 10.068 13.5377 10.456 13.1137 10.736C12.6897 11.008 12.1857 11.144 11.6017 11.144C10.7137 11.144 10.0217 10.848 9.52566 10.256C9.02966 9.664 8.78166 8.86 8.78166 7.844C8.78166 7.188 8.89366 6.612 9.11766 6.116C9.34166 5.612 9.66566 5.224 10.0897 4.952C10.5137 4.672 11.0217 4.532 11.6137 4.532ZM11.6137 5.42C10.5177 5.42 9.96966 6.228 9.96966 7.844C9.96966 9.452 10.5137 10.256 11.6017 10.256C12.6897 10.256 13.2337 9.448 13.2337 7.832C13.2337 6.224 12.6937 5.42 11.6137 5.42ZM21.2043 10.112V12.8H20.3043L20.1243 11H16.0683L15.8883 12.8H14.9883V10.112H15.4323C15.6243 9.984 15.7763 9.84 15.8883 9.68C16.0003 9.512 16.1003 9.224 16.1883 8.816C16.2843 8.408 16.3603 7.812 16.4163 7.028L16.5843 4.676H20.5443V10.112H21.2043ZM19.4403 5.552H17.5803L17.4843 6.884C17.4283 7.628 17.3643 8.2 17.2923 8.6C17.2203 9 17.1163 9.308 16.9803 9.524C16.8523 9.74 16.6643 9.936 16.4163 10.112H19.4403V5.552ZM27.5723 7.652C27.5723 7.836 27.5643 8.024 27.5483 8.216H23.5163C23.5643 8.912 23.7403 9.424 24.0443 9.752C24.3483 10.08 24.7403 10.244 25.2203 10.244C25.5243 10.244 25.8043 10.2 26.0603 10.112C26.3163 10.024 26.5843 9.884 26.8643 9.692L27.3443 10.352C26.6723 10.88 25.9363 11.144 25.1363 11.144C24.2563 11.144 23.5683 10.856 23.0723 10.28C22.5843 9.704 22.3403 8.912 22.3403 7.904C22.3403 7.248 22.4443 6.668 22.6523 6.164C22.8683 5.652 23.1723 5.252 23.5643 4.964C23.9643 4.676 24.4323 4.532 24.9683 4.532C25.8083 4.532 26.4523 4.808 26.9003 5.36C27.3483 5.912 27.5723 6.676 27.5723 7.652ZM26.4803 7.328C26.4803 6.704 26.3563 6.228 26.1083 5.9C25.8603 5.572 25.4883 5.408 24.9923 5.408C24.0883 5.408 23.5963 6.072 23.5163 7.4H26.4803V7.328ZM33.8501 4.676V11H32.7461V5.576H30.7901L30.6101 7.688C30.5381 8.544 30.4461 9.184 30.3341 9.608C30.2301 10.032 30.0621 10.36 29.8301 10.592C29.6061 10.816 29.2621 11 28.7981 11.144L28.5221 10.268C28.7941 10.172 28.9861 10.048 29.0981 9.896C29.2101 9.744 29.2941 9.512 29.3501 9.2C29.4061 8.888 29.4661 8.344 29.5301 7.568L29.7821 4.676H33.8501ZM41.0522 11H39.9602V8.144C39.9602 7.664 39.9762 7.208 40.0082 6.776C40.0402 6.344 40.0682 6.06 40.0922 5.924L37.4402 11H36.1322V4.676H37.2242V7.532C37.2242 7.956 37.2082 8.396 37.1762 8.852C37.1442 9.3 37.1202 9.588 37.1042 9.716L39.7202 4.676H41.0522V11ZM47.5995 4.676L47.4675 5.576H45.4395V11H44.3355V5.576H42.2475V4.676H47.5995ZM50.6856 6.716C51.6296 6.716 52.3136 6.9 52.7376 7.268C53.1616 7.636 53.3736 8.16 53.3736 8.84C53.3736 9.552 53.1336 10.092 52.6536 10.46C52.1816 10.82 51.5936 11 50.8896 11H48.7416V4.676H49.8456V6.716H50.6856ZM50.7936 10.136C51.2416 10.136 51.5856 10.036 51.8256 9.836C52.0736 9.636 52.1976 9.304 52.1976 8.84C52.1976 8.4 52.0816 8.076 51.8496 7.868C51.6256 7.66 51.2336 7.556 50.6736 7.556H49.8456V10.136H50.7936ZM57.2331 4.532C57.6091 4.532 57.9531 4.588 58.2651 4.7C58.5771 4.804 58.8771 4.976 59.1651 5.216L58.6371 5.912C58.4131 5.752 58.1931 5.636 57.9771 5.564C57.7691 5.484 57.5371 5.444 57.2811 5.444C56.7691 5.444 56.3691 5.648 56.0811 6.056C55.8011 6.464 55.6611 7.068 55.6611 7.868C55.6611 8.668 55.8011 9.26 56.0811 9.644C56.3611 10.02 56.7611 10.208 57.2811 10.208C57.5291 10.208 57.7571 10.172 57.9651 10.1C58.1731 10.02 58.4051 9.896 58.6611 9.728L59.1651 10.448C58.5891 10.912 57.9451 11.144 57.2331 11.144C56.3771 11.144 55.7011 10.856 55.2051 10.28C54.7171 9.704 54.4731 8.908 54.4731 7.892C54.4731 7.22 54.5851 6.632 54.8091 6.128C55.0331 5.624 55.3491 5.232 55.7571 4.952C56.1731 4.672 56.6651 4.532 57.2331 4.532ZM64.9915 4.676V11H63.8875V8.576H62.5075L61.1755 11H59.9395L61.4515 8.324C60.7075 7.972 60.3355 7.4 60.3355 6.608C60.3355 5.984 60.5595 5.508 61.0075 5.18C61.4555 4.844 62.0835 4.676 62.8915 4.676H64.9915ZM63.8875 7.736V5.528H62.8675C62.4115 5.528 62.0675 5.616 61.8355 5.792C61.6115 5.96 61.4995 6.232 61.4995 6.608C61.4995 7.008 61.6035 7.296 61.8115 7.472C62.0275 7.648 62.3715 7.736 62.8435 7.736H63.8875ZM67.5569 9.476C67.7969 9.476 67.9969 9.556 68.1569 9.716C68.3169 9.876 68.3969 10.072 68.3969 10.304C68.3969 10.536 68.3169 10.736 68.1569 10.904C67.9969 11.064 67.7969 11.144 67.5569 11.144C67.3249 11.144 67.1289 11.064 66.9689 10.904C66.8089 10.736 66.7289 10.536 66.7289 10.304C66.7289 10.072 66.8089 9.876 66.9689 9.716C67.1289 9.556 67.3249 9.476 67.5569 9.476ZM67.5569 5.06C67.7969 5.06 67.9969 5.14 68.1569 5.3C68.3169 5.46 68.3969 5.656 68.3969 5.888C68.3969 6.12 68.3169 6.32 68.1569 6.488C67.9969 6.648 67.7969 6.728 67.5569 6.728C67.3249 6.728 67.1289 6.648 66.9689 6.488C66.8089 6.32 66.7289 6.12 66.7289 5.888C66.7289 5.656 66.8089 5.46 66.9689 5.3C67.1289 5.14 67.3249 5.06 67.5569 5.06Z" fill="#1F1D14"/>
<path d="M90.5002 8.16681C90.1556 8.16909 89.8157 8.24769 89.505 8.39697C89.1944 8.54624 88.9207 8.76248 88.7035 9.03015L85.7285 7.65931C85.8684 7.231 85.8684 6.76929 85.7285 6.34098L88.7035 4.97015C89.0545 5.39363 89.5437 5.67953 90.085 5.77739C90.6262 5.87525 91.1846 5.77878 91.6616 5.50501C92.1386 5.23124 92.5036 4.79776 92.6921 4.28108C92.8806 3.7644 92.8806 3.19774 92.692 2.68109C92.5034 2.16445 92.1383 1.73104 91.6612 1.45735C91.1842 1.18367 90.6258 1.0873 90.0845 1.18526C89.5433 1.28322 89.0541 1.56921 88.7033 1.99275C88.3524 2.4163 88.1624 2.95017 88.1669 3.50015C88.1686 3.63912 88.1823 3.77768 88.2077 3.91431L85.1277 5.33181C84.7993 5.01074 84.3835 4.7937 83.9323 4.7079C83.4812 4.6221 83.0147 4.67135 82.5914 4.84948C82.1681 5.0276 81.8068 5.32669 81.5527 5.70927C81.2986 6.09184 81.1631 6.54089 81.1631 7.00015C81.1631 7.45941 81.2986 7.90845 81.5527 8.29103C81.8068 8.6736 82.1681 8.97269 82.5914 9.15082C83.0147 9.32895 83.4812 9.3782 83.9323 9.2924C84.3835 9.2066 84.7993 8.98956 85.1277 8.66848L88.2077 10.086C88.1823 10.2226 88.1686 10.3612 88.1669 10.5001C88.1669 10.9616 88.3037 11.4128 88.5601 11.7965C88.8165 12.1802 89.1809 12.4793 89.6073 12.6559C90.0336 12.8325 90.5028 12.8787 90.9554 12.7886C91.408 12.6986 91.8238 12.4764 92.1501 12.1501C92.4764 11.8237 92.6987 11.408 92.7887 10.9554C92.8787 10.5027 92.8325 10.0336 92.6559 9.60722C92.4793 9.18086 92.1803 8.81644 91.7965 8.56005C91.4128 8.30366 90.9617 8.16681 90.5002 8.16681ZM90.5002 2.33348C90.731 2.33348 90.9565 2.40191 91.1484 2.5301C91.3402 2.6583 91.4898 2.8405 91.5781 3.05368C91.6664 3.26686 91.6895 3.50144 91.6445 3.72775C91.5994 3.95406 91.4883 4.16194 91.3252 4.32511C91.162 4.48827 90.9541 4.59938 90.7278 4.6444C90.5015 4.68941 90.2669 4.66631 90.0537 4.57801C89.8406 4.48971 89.6584 4.34017 89.5302 4.14831C89.402 3.95646 89.3335 3.73089 89.3335 3.50015C89.3335 3.19073 89.4565 2.89398 89.6753 2.67519C89.894 2.4564 90.1908 2.33348 90.5002 2.33348ZM83.5002 8.16681C83.2695 8.16681 83.0439 8.09839 82.852 7.9702C82.6602 7.842 82.5107 7.65979 82.4224 7.44661C82.334 7.23343 82.3109 6.99885 82.356 6.77254C82.401 6.54623 82.5121 6.33835 82.6753 6.17519C82.8384 6.01203 83.0463 5.90091 83.2726 5.8559C83.4989 5.81088 83.7335 5.83399 83.9467 5.92229C84.1599 6.01059 84.3421 6.16013 84.4703 6.35198C84.5985 6.54384 84.6669 6.7694 84.6669 7.00015C84.6669 7.30957 84.544 7.60631 84.3252 7.82511C84.1064 8.0439 83.8096 8.16681 83.5002 8.16681ZM90.5002 11.6668C90.2695 11.6668 90.0439 11.5984 89.852 11.4702C89.6602 11.342 89.5107 11.1598 89.4224 10.9466C89.334 10.7334 89.3109 10.4989 89.356 10.2725C89.401 10.0462 89.5121 9.83835 89.6753 9.67519C89.8384 9.51203 90.0463 9.40091 90.2726 9.3559C90.4989 9.31088 90.7335 9.33399 90.9467 9.42229C91.1599 9.51059 91.3421 9.66012 91.4703 9.85198C91.5985 10.0438 91.6669 10.2694 91.6669 10.5001C91.6669 10.8096 91.544 11.1063 91.3252 11.3251C91.1064 11.5439 90.8096 11.6668 90.5002 11.6668Z" fill="black"/>
</g>
<defs>
<clipPath id="clip0_2_810">
<rect width="94" height="14" fill="white"/>
</clipPath>
</defs>
</svg>
