<svg width="130" height="72" viewBox="0 0 130 72" fill="none" xmlns="http://www.w3.org/2000/svg">
<rect width="130" height="72" rx="8" fill="#F2F2F2"/>
<path d="M24.5247 24.976C25.9007 24.976 26.962 25.264 27.7087 25.84C28.466 26.416 28.8447 27.2693 28.8447 28.4C28.8447 29.616 28.4554 30.5227 27.6767 31.12C26.898 31.7067 25.8474 32 24.5247 32H21.1007V20.944H27.5967L27.3727 22.592H23.2127V24.976H24.5247ZM24.4607 30.416C25.154 30.416 25.6874 30.2667 26.0607 29.968C26.434 29.6587 26.6207 29.1467 26.6207 28.432C26.6207 27.7707 26.434 27.2853 26.0607 26.976C25.698 26.6667 25.1487 26.512 24.4127 26.512H23.2127V30.416H24.4607ZM36.6989 29.76C36.6989 30.0907 36.7469 30.336 36.8429 30.496C36.9496 30.6453 37.1149 30.7627 37.3389 30.848L36.9069 32.208C36.4269 32.1653 36.0323 32.048 35.7229 31.856C35.4243 31.664 35.1949 31.3707 35.0349 30.976C34.7469 31.4027 34.3843 31.7227 33.9469 31.936C33.5203 32.1387 33.0403 32.24 32.5069 32.24C31.6643 32.24 30.9976 32 30.5069 31.52C30.0163 31.04 29.7709 30.4107 29.7709 29.632C29.7709 28.7147 30.1016 28.016 30.7629 27.536C31.4349 27.0453 32.3896 26.8 33.6269 26.8H34.6829V26.32C34.6829 25.776 34.5549 25.3973 34.2989 25.184C34.0536 24.96 33.6536 24.848 33.0989 24.848C32.4803 24.848 31.7336 24.9973 30.8589 25.296L30.3789 23.904C31.4349 23.4987 32.4589 23.296 33.4509 23.296C35.6163 23.296 36.6989 24.2667 36.6989 26.208V29.76ZM33.0509 30.752C33.7443 30.752 34.2883 30.4053 34.6829 29.712V28H33.8349C32.5123 28 31.8509 28.4907 31.8509 29.472C31.8509 29.8773 31.9523 30.192 32.1549 30.416C32.3576 30.64 32.6563 30.752 33.0509 30.752ZM44.0893 32V28.464H41.2253V32H39.1773V23.536H41.2253V26.912H44.0893V23.536H46.1373V32H44.0893ZM55.6232 23.536L53.2392 27.456L55.8792 32H53.6232L51.5592 28.24H50.6472V32H48.5992V23.536H50.6472V26.88H51.6072L53.5752 23.536H55.6232ZM60.4458 23.296C61.6938 23.296 62.6645 23.696 63.3578 24.496C64.0618 25.2853 64.4138 26.3733 64.4138 27.76C64.4138 28.6453 64.2538 29.4293 63.9338 30.112C63.6138 30.784 63.1551 31.3067 62.5578 31.68C61.9605 32.0533 61.2511 32.24 60.4298 32.24C59.1818 32.24 58.2058 31.8453 57.5018 31.056C56.7978 30.256 56.4458 29.1573 56.4458 27.76C56.4458 26.8747 56.6058 26.096 56.9258 25.424C57.2458 24.752 57.7045 24.2293 58.3018 23.856C58.9098 23.4827 59.6245 23.296 60.4458 23.296ZM60.4458 24.848C59.2191 24.848 58.6058 25.8187 58.6058 27.76C58.6058 28.7627 58.7551 29.504 59.0538 29.984C59.3631 30.4533 59.8218 30.688 60.4298 30.688C61.0378 30.688 61.4911 30.448 61.7898 29.968C62.0991 29.488 62.2538 28.752 62.2538 27.76C62.2538 26.768 62.0991 26.0373 61.7898 25.568C61.4911 25.088 61.0431 24.848 60.4458 24.848ZM71.1976 27.376C72.6482 27.536 73.3736 28.2133 73.3736 29.408C73.3736 30.2827 73.0376 30.9333 72.3656 31.36C71.7042 31.7867 70.8082 32 69.6776 32H66.3336V23.632C67.4749 23.408 68.5042 23.296 69.4216 23.296C70.5202 23.296 71.3842 23.4933 72.0136 23.888C72.6429 24.2827 72.9576 24.8533 72.9576 25.6C72.9576 26.08 72.8082 26.4693 72.5096 26.768C72.2109 27.0667 71.7736 27.2693 71.1976 27.376ZM69.4056 24.688C69.1176 24.688 68.7762 24.7147 68.3816 24.768V26.912H69.5976C70.4829 26.912 70.9256 26.5333 70.9256 25.776C70.9256 25.0507 70.4189 24.688 69.4056 24.688ZM69.6296 30.576C70.7069 30.576 71.2456 30.144 71.2456 29.28C71.2456 28.8853 71.1229 28.5973 70.8776 28.416C70.6322 28.224 70.2269 28.128 69.6616 28.128H68.3816V30.576H69.6296ZM78.6009 23.296C79.1556 23.296 79.6516 23.376 80.0889 23.536C80.5369 23.696 80.9583 23.9467 81.3529 24.288L80.4409 25.52C80.1529 25.3067 79.8756 25.152 79.6089 25.056C79.3423 24.96 79.0489 24.912 78.7289 24.912C77.4596 24.912 76.8249 25.8773 76.8249 27.808C76.8249 28.7893 76.9903 29.4987 77.3209 29.936C77.6516 30.3627 78.1209 30.576 78.7289 30.576C79.0276 30.576 79.2996 30.528 79.5449 30.432C79.8009 30.336 80.0996 30.1813 80.4409 29.968L81.3529 31.264C80.5529 31.9147 79.6409 32.24 78.6169 32.24C77.8063 32.24 77.1023 32.064 76.5049 31.712C75.9076 31.3493 75.4489 30.8373 75.1289 30.176C74.8089 29.5147 74.6489 28.736 74.6489 27.84C74.6489 26.944 74.8089 26.1547 75.1289 25.472C75.4489 24.7787 75.9076 24.2453 76.5049 23.872C77.1023 23.488 77.8009 23.296 78.6009 23.296ZM89.8576 23.536L87.4736 27.456L90.1136 32H87.8576L85.7936 28.24H84.8816V32H82.8336V23.536H84.8816V26.88H85.8416L87.8096 23.536H89.8576ZM98.4521 32H96.4841V28.608C96.4841 27.9893 96.5107 27.408 96.5641 26.864C96.6174 26.3093 96.6761 25.8933 96.7401 25.616L93.5881 32H91.3961V23.536H93.3801V26.928C93.3801 27.5147 93.3481 28.096 93.2841 28.672C93.2307 29.248 93.1721 29.6587 93.1081 29.904L96.2281 23.536H98.4521V32ZM107.968 32H106V28.608C106 27.9893 106.026 27.408 106.08 26.864C106.133 26.3093 106.192 25.8933 106.256 25.616L103.104 32H100.912V23.536H102.896V26.928C102.896 27.5147 102.864 28.096 102.8 28.672C102.746 29.248 102.688 29.6587 102.624 29.904L105.744 23.536H107.968V32ZM104.432 21.808C103.685 21.808 103.082 21.6107 102.624 21.216C102.165 20.8213 101.904 20.288 101.84 19.616L103.04 19.376C103.146 19.7173 103.312 19.9627 103.536 20.112C103.76 20.2613 104.058 20.336 104.432 20.336C104.805 20.336 105.109 20.2613 105.344 20.112C105.578 19.952 105.744 19.7067 105.84 19.376L107.056 19.616C106.992 20.288 106.725 20.8213 106.256 21.216C105.786 21.6107 105.178 21.808 104.432 21.808ZM53.0619 42.296C53.6165 42.296 54.1125 42.376 54.5499 42.536C54.9979 42.696 55.4192 42.9467 55.8139 43.288L54.9019 44.52C54.6139 44.3067 54.3365 44.152 54.0699 44.056C53.8032 43.96 53.5099 43.912 53.1899 43.912C51.9205 43.912 51.2859 44.8773 51.2859 46.808C51.2859 47.7893 51.4512 48.4987 51.7819 48.936C52.1125 49.3627 52.5819 49.576 53.1899 49.576C53.4885 49.576 53.7605 49.528 54.0059 49.432C54.2619 49.336 54.5605 49.1813 54.9019 48.968L55.8139 50.264C55.0139 50.9147 54.1019 51.24 53.0779 51.24C52.2672 51.24 51.5632 51.064 50.9659 50.712C50.3685 50.3493 49.9099 49.8373 49.5899 49.176C49.2699 48.5147 49.1099 47.736 49.1099 46.84C49.1099 45.944 49.2699 45.1547 49.5899 44.472C49.9099 43.7787 50.3685 43.2453 50.9659 42.872C51.5632 42.488 52.2619 42.296 53.0619 42.296ZM63.5684 42.536V51H61.5204V47.672C61.211 47.9387 60.8377 48.1467 60.4004 48.296C59.9737 48.4453 59.531 48.52 59.0724 48.52C58.2617 48.52 57.6537 48.296 57.2484 47.848C56.843 47.4 56.6404 46.7707 56.6404 45.96V42.536H58.6884V45.704C58.6884 46.1627 58.7737 46.4933 58.9444 46.696C59.1257 46.888 59.403 46.984 59.7764 46.984C60.0857 46.984 60.4004 46.92 60.7204 46.792C61.051 46.6533 61.3177 46.4827 61.5204 46.28V42.536H63.5684ZM72.9729 46.568C72.9729 46.6747 72.9569 46.952 72.9249 47.4H67.6129C67.6769 48.2213 67.8902 48.808 68.2529 49.16C68.6155 49.512 69.0955 49.688 69.6929 49.688C70.0662 49.688 70.4182 49.6293 70.7489 49.512C71.0795 49.384 71.4315 49.192 71.8049 48.936L72.6529 50.104C71.7142 50.8613 70.6689 51.24 69.5169 51.24C68.2262 51.24 67.2289 50.8453 66.5249 50.056C65.8315 49.2667 65.4849 48.1893 65.4849 46.824C65.4849 45.96 65.6342 45.1867 65.9329 44.504C66.2315 43.8107 66.6635 43.272 67.2289 42.888C67.7942 42.4933 68.4662 42.296 69.2449 42.296C70.4289 42.296 71.3462 42.6747 71.9969 43.432C72.6475 44.1787 72.9729 45.224 72.9729 46.568ZM70.9409 45.976C70.9409 44.4933 70.3915 43.752 69.2929 43.752C68.7915 43.752 68.3969 43.9387 68.1089 44.312C67.8315 44.6747 67.6662 45.2613 67.6129 46.072H70.9409V45.976ZM67.5169 38.44C67.8262 38.44 68.0875 38.5467 68.3009 38.76C68.5142 38.9733 68.6209 39.2347 68.6209 39.544C68.6209 39.8533 68.5142 40.1147 68.3009 40.328C68.0875 40.5413 67.8262 40.648 67.5169 40.648C67.1969 40.648 66.9249 40.5413 66.7009 40.328C66.4875 40.1147 66.3809 39.8533 66.3809 39.544C66.3809 39.2347 66.4875 38.9733 66.7009 38.76C66.9249 38.5467 67.1969 38.44 67.5169 38.44ZM71.0529 38.44C71.3729 38.44 71.6395 38.5467 71.8529 38.76C72.0662 38.9733 72.1729 39.2347 72.1729 39.544C72.1729 39.8533 72.0662 40.1147 71.8529 40.328C71.6395 40.5413 71.3729 40.648 71.0529 40.648C70.7435 40.648 70.4769 40.5413 70.2529 40.328C70.0395 40.1147 69.9329 39.8533 69.9329 39.544C69.9329 39.2347 70.0395 38.9733 70.2529 38.76C70.4769 38.5467 70.7435 38.44 71.0529 38.44ZM80.6279 42.536L80.3719 44.104H77.8919V51H75.8439V44.104H73.2199V42.536H80.6279Z" fill="#1F1D14"/>
</svg>
